<?xml version="1.0" standalone="no"?>
<!DOCTYPE svg PUBLIC "-//W3C//DTD SVG 20010904//EN"
 "http://www.w3.org/TR/2001/REC-SVG-20010904/DTD/svg10.dtd">
<svg version="1.0" xmlns="http://www.w3.org/2000/svg"
 width="471.000000pt" height="387.000000pt" viewBox="0 0 471.000000 387.000000"
 preserveAspectRatio="xMidYMid meet">
<metadata>
Created by potrace 1.16, written by Peter Selinger 2001-2019
</metadata>
<g transform="translate(0.000000,387.000000) scale(0.100000,-0.100000)"
fill="#000000" stroke="none">
<path d="M0 3750 l0 -120 34 0 c32 0 35 3 34 29 -1 15 2 34 7 40 4 7 -2 22
-14 35 l-21 22 19 57 20 57 -40 0 -39 0 0 -120z"/>
<path d="M250 3855 c0 -11 7 -14 24 -9 35 8 50 -24 36 -74 -5 -20 -10 -51 -10
-68 0 -17 -7 -37 -15 -44 -8 -7 -15 -25 -15 -40 0 -34 -19 -90 -31 -90 -14 0
-38 -55 -33 -76 2 -10 0 -26 -6 -34 -8 -13 -11 -13 -19 -1 -5 8 -16 11 -26 7
-15 -5 -16 -14 -11 -56 4 -29 2 -58 -4 -69 -7 -15 -6 -27 7 -49 15 -26 15 -32
3 -47 -10 -13 -23 -15 -49 -10 -20 3 -49 7 -66 8 l-30 2 -3 -157 c-2 -150 -1
-158 17 -158 10 0 25 -7 32 -16 11 -14 10 -19 -7 -33 -12 -9 -26 -26 -33 -38
-15 -29 -14 -83 2 -83 37 0 46 -122 12 -160 -19 -21 -20 -39 -22 -289 -1 -146
0 -260 3 -253 11 25 49 59 108 96 32 20 60 46 63 57 3 10 14 19 24 19 11 0 31
17 47 40 30 44 39 48 58 23 12 -17 14 -17 28 2 8 11 16 26 16 33 0 6 5 12 11
12 18 0 2 -90 -21 -122 -11 -15 -20 -40 -20 -56 0 -37 -28 -120 -52 -154 -12
-17 -29 -28 -43 -28 -20 0 -25 -6 -30 -37 -9 -51 -13 -62 -14 -35 -1 22 -25
31 -36 12 -3 -6 -16 -7 -29 -4 -16 4 -32 -3 -53 -20 -17 -14 -38 -26 -47 -26
-18 0 -22 -45 -6 -70 8 -12 10 -12 15 2 4 10 4 21 1 26 -6 9 24 22 53 22 19 0
9 -56 -23 -127 -27 -58 -33 -98 -16 -108 18 -11 10 -79 -15 -124 l-25 -43 0
-704 0 -704 598 0 597 0 19 46 c21 51 40 43 30 -13 -6 -31 -5 -33 24 -33 29 0
30 2 46 73 9 39 21 86 26 102 4 17 12 55 15 85 4 30 13 71 20 90 7 20 15 74
19 120 8 104 24 170 43 177 8 3 24 1 36 -5 12 -7 31 -11 42 -9 16 2 21 -5 23
-34 2 -23 -2 -40 -12 -48 -14 -11 -13 -16 1 -38 16 -24 16 -26 -5 -43 -26 -21
-28 -36 -7 -44 8 -3 15 -15 15 -26 0 -16 -6 -20 -34 -20 -46 0 -59 -18 -41
-54 8 -16 16 -62 18 -102 2 -72 10 -87 34 -63 8 8 13 7 18 -1 8 -13 -3 -27
-37 -44 -14 -7 -24 -22 -26 -39 -2 -18 -11 -31 -26 -36 -12 -5 -28 -16 -35
-25 -13 -15 62 -16 942 -14 696 2 959 6 967 14 9 9 5 18 -15 37 -31 28 -22 41
29 39 41 -1 66 23 66 65 0 28 5 36 30 47 42 17 138 -3 191 -40 22 -15 42 -25
45 -22 2 3 9 34 15 68 12 78 14 80 48 80 67 0 79 -59 19 -93 -29 -16 -30 -19
-15 -34 13 -14 20 -14 46 -4 38 17 71 6 71 -22 0 -47 -14 -99 -26 -104 -8 -3
-26 -2 -40 1 -22 6 -25 10 -19 39 l6 32 -16 -28 c-9 -15 -27 -32 -41 -37 -13
-5 -24 -16 -24 -25 0 -13 60 -15 515 -15 l515 0 0 1935 0 1935 -1995 0 c-1097
0 -1995 -2 -1995 -4 0 -2 7 -20 15 -39 16 -38 21 -116 8 -118 -5 0 -18 -2 -30
-3 -16 -2 -25 5 -33 28 -7 17 -18 46 -26 64 -8 18 -14 42 -14 52 0 18 -7 20
-55 20 -49 0 -54 -2 -46 -17 22 -42 30 -115 24 -222 -5 -95 -3 -117 12 -151
15 -33 16 -49 9 -83 -5 -23 -6 -60 -2 -82 22 -119 26 -174 13 -228 -7 -31 -10
-58 -7 -61 3 -3 21 -6 39 -6 33 0 34 -1 19 -22 -10 -13 -16 -44 -16 -74 0 -45
-4 -56 -27 -74 -33 -26 -45 -22 -59 21 -8 24 -18 35 -35 37 -13 2 -27 7 -31
10 -12 12 -17 64 -8 82 14 26 -16 62 -48 58 -22 -3 -27 2 -34 30 -6 22 -14 32
-23 29 -7 -3 -16 1 -19 10 -5 12 -15 14 -42 9 l-35 -7 6 58 c4 32 9 101 12
153 5 87 8 98 34 128 26 30 29 39 29 107 0 57 3 75 14 75 9 0 17 27 26 93 7
50 16 100 21 110 8 14 5 17 -15 17 -22 0 -25 -5 -31 -59 -4 -33 -4 -65 0 -71
10 -16 -5 -50 -22 -50 -12 0 -13 6 -8 23 5 12 10 52 12 90 l5 67 -51 0 c-39 0
-51 -4 -51 -15z m1070 -307 c80 -16 181 -36 225 -44 44 -9 98 -19 120 -23 22
-5 72 -14 110 -21 39 -6 117 -22 175 -35 58 -13 134 -28 170 -35 65 -11 111
-21 310 -61 58 -12 123 -25 145 -30 22 -4 78 -14 125 -23 47 -9 119 -23 160
-31 85 -16 242 -47 375 -75 50 -10 164 -33 255 -50 91 -17 183 -35 205 -40 22
-5 63 -14 90 -19 275 -50 705 -140 705 -148 0 -6 -44 -233 -59 -303 -6 -25
-17 -85 -26 -135 -16 -85 -53 -278 -75 -390 -9 -47 -28 -143 -50 -260 -5 -27
-17 -86 -25 -130 -19 -96 -30 -154 -50 -260 -8 -44 -19 -100 -25 -125 -5 -25
-16 -85 -25 -135 -9 -49 -20 -108 -25 -130 -4 -22 -13 -65 -19 -95 -6 -30 -17
-91 -26 -135 -30 -156 -34 -180 -41 -228 -4 -27 -12 -51 -19 -53 -12 -5 -36
-2 -270 41 -77 13 -183 32 -235 40 -52 8 -162 26 -245 40 -82 15 -175 30 -205
35 -30 4 -149 24 -265 43 -115 20 -223 38 -240 40 -16 3 -97 17 -180 32 -82
14 -193 33 -245 40 -52 8 -135 21 -185 30 -49 9 -117 20 -150 25 -33 4 -98 13
-145 20 -47 6 -101 16 -120 21 -38 10 -151 29 -215 35 l-40 4 40 -19 c22 -10
46 -25 54 -34 8 -11 22 -15 36 -11 13 3 26 1 29 -5 4 -6 0 -11 -8 -11 -9 0
-16 -5 -16 -10 0 -6 3 -9 8 -8 11 3 52 -22 52 -32 0 -6 -16 -10 -35 -10 -30 0
-37 -5 -52 -37 -21 -44 -42 -53 -50 -23 -5 18 -11 21 -37 17 -31 -4 -76 10
-76 24 0 4 -14 21 -30 39 -25 27 -33 30 -45 20 -8 -7 -30 -20 -48 -30 -17 -10
-33 -22 -33 -29 -1 -6 -2 -21 -3 -33 -1 -18 -3 -20 -10 -8 -5 8 -5 43 0 79 10
72 -1 90 -54 91 -20 0 -30 7 -37 25 -10 27 -29 32 -48 13 -19 -19 -14 -28 18
-39 17 -6 30 -15 30 -20 0 -16 -48 -10 -54 7 -4 10 -13 13 -27 9 -16 -5 -27 0
-44 21 -22 27 -31 28 -66 2 -21 -15 -57 -2 -41 14 34 34 -2 37 -47 4 -48 -36
-66 -25 -41 25 36 69 17 100 -41 68 -24 -13 -60 -3 -53 15 4 10 -12 15 -63 20
-37 4 -81 11 -98 16 -16 4 -56 11 -88 13 -50 5 -57 3 -57 -12 0 -10 -7 -24
-16 -32 -14 -11 -15 -9 -9 23 5 28 3 37 -10 42 -20 7 -17 25 13 101 57 141
185 483 247 655 15 41 30 84 35 95 5 11 32 83 60 160 28 77 55 149 60 160 7
18 24 64 127 345 19 52 41 111 48 130 8 19 29 78 48 130 79 213 122 331 162
440 23 63 50 137 60 163 l17 48 42 -6 c22 -4 106 -20 186 -37z m-920 -726 c14
-6 37 -13 53 -16 28 -7 37 -31 15 -39 -7 -2 -21 0 -31 5 -22 11 -47 -6 -47
-32 0 -21 -29 -35 -44 -20 -14 14 -46 -17 -46 -45 0 -28 -14 -40 -69 -56 -35
-10 -45 -11 -49 -1 -2 7 -10 12 -18 12 -8 0 -14 3 -15 8 0 4 -2 22 -3 40 -4
35 9 51 27 33 14 -14 37 4 37 30 0 10 9 23 21 29 11 7 27 26 34 44 14 32 15
32 62 26 26 -4 59 -12 73 -18z m-68 -287 c-16 -13 -32 -38 -35 -54 -4 -19 -18
-35 -41 -49 -19 -11 -46 -39 -60 -61 -14 -22 -37 -48 -51 -57 -14 -9 -39 -38
-57 -65 -35 -54 -68 -66 -68 -25 0 13 7 29 15 36 8 7 15 27 15 44 0 18 4 36
10 42 5 5 13 32 16 59 9 66 58 169 86 182 16 7 29 6 49 -6 23 -13 33 -14 61
-3 19 6 44 12 56 12 14 0 23 7 24 18 0 9 3 2 5 -16 4 -26 -1 -37 -25 -57z
m672 -1631 c18 -7 22 -59 6 -69 -6 -3 -7 -18 -4 -31 5 -18 0 -35 -15 -55 -25
-33 -24 -57 1 -72 23 -15 63 8 79 44 13 33 48 39 73 13 20 -20 12 -34 -19 -34
-36 0 -55 -10 -55 -31 0 -18 -10 -23 -37 -20 -6 1 -21 -12 -33 -29 -23 -32
-57 -40 -67 -15 -3 9 -13 15 -22 14 -29 -4 -49 11 -44 32 9 33 -28 22 -89 -26
-31 -24 -60 -41 -63 -36 -3 5 2 16 11 25 21 22 9 36 -25 30 -24 -5 -32 -1 -46
20 -10 14 -21 24 -25 21 -21 -13 -40 8 -38 41 1 22 -6 44 -20 64 -13 16 -19
30 -14 30 18 0 82 -72 82 -92 0 -17 4 -20 29 -15 15 3 33 1 39 -5 19 -19 27 0
12 27 -7 14 -11 27 -9 29 6 6 113 -12 144 -24 15 -6 25 -17 25 -30 0 -13 7
-20 19 -20 22 0 36 29 21 44 -20 20 -11 74 18 108 16 18 31 41 35 51 7 19 9
20 31 11z m652 -7 c4 -4 3 -17 -3 -29 -14 -31 -6 -48 22 -48 31 0 39 14 24 41
-13 25 -14 26 151 -12 52 -12 111 -24 130 -28 40 -7 52 -38 25 -61 -14 -11
-20 -11 -37 -1 -16 10 -23 10 -37 -3 -19 -17 -47 -15 -206 15 -27 5 -60 9 -72
9 -23 0 -129 46 -138 60 -3 4 6 15 20 24 14 9 25 23 25 30 0 10 13 13 44 12
25 -1 48 -5 52 -9z m753 -186 c12 -7 16 -19 13 -50 -5 -48 -30 -61 -67 -37
-13 9 -35 16 -49 16 -14 0 -36 5 -50 11 -21 10 -23 15 -14 40 5 15 17 30 26
33 23 7 120 -2 141 -13z m256 -37 c17 -2 50 -12 73 -21 41 -15 43 -18 38 -47
-10 -51 -72 -85 -101 -57 -6 5 -39 11 -73 14 -35 3 -69 10 -75 16 -6 6 -25 11
-43 11 -48 0 -60 22 -24 44 17 9 30 23 30 31 0 7 6 16 13 18 12 5 107 0 162
-9z m-749 -25 c3 -6 17 -8 30 -5 36 9 62 -10 70 -49 3 -19 15 -47 27 -61 15
-20 17 -28 7 -34 -7 -4 -9 -16 -5 -29 7 -22 -2 -26 -42 -15 -26 7 -31 39 -8
48 23 9 18 21 -15 33 -16 6 -30 18 -30 27 0 9 -4 16 -8 16 -14 0 -53 -47 -56
-66 -2 -11 -11 -19 -22 -19 -29 0 -41 57 -21 98 9 17 18 40 21 50 6 19 41 23
52 6z m477 -115 c12 -20 35 -17 42 6 5 15 15 20 45 20 21 0 42 -4 45 -10 3 -5
17 -10 31 -10 35 0 64 -17 64 -38 0 -10 4 -22 9 -28 5 -5 12 -19 15 -31 16
-53 -92 -56 -114 -4 -11 27 -16 30 -83 36 -40 3 -89 13 -109 22 -33 14 -36 18
-26 37 6 11 16 24 21 28 13 8 49 -9 60 -28z m1017 -12 c77 -16 175 -44 181
-50 4 -4 9 -28 12 -54 l5 -48 -48 0 c-54 0 -63 5 -48 30 9 14 9 22 -1 34 -17
20 -30 20 -52 0 -17 -16 -20 -15 -36 15 -16 29 -22 32 -52 27 -36 -6 -75 14
-92 46 -10 19 -8 20 38 15 26 -3 68 -10 93 -15z"/>
<path d="M1120 3478 c-7 -18 -16 -43 -21 -55 -5 -13 -13 -33 -18 -45 -11 -29
-96 -258 -151 -408 -50 -137 -54 -148 -68 -180 -6 -14 -33 -86 -60 -160 -27
-74 -73 -198 -102 -275 -28 -77 -62 -169 -75 -205 -13 -36 -49 -135 -80 -220
-31 -85 -74 -202 -95 -260 -21 -58 -48 -130 -60 -160 -42 -104 -90 -244 -90
-261 0 -20 31 -31 135 -48 33 -5 128 -22 210 -36 83 -14 175 -30 205 -35 113
-17 487 -80 535 -90 28 -5 106 -19 175 -30 69 -12 163 -28 210 -36 47 -8 110
-19 140 -24 30 -5 96 -16 145 -25 50 -9 133 -22 185 -30 52 -8 120 -19 150
-24 30 -6 161 -28 290 -50 744 -127 1021 -173 1070 -181 30 -5 93 -16 140 -24
47 -8 88 -11 91 -8 3 4 13 52 23 107 9 55 21 118 26 140 5 22 24 114 41 205
32 174 91 481 109 565 13 63 47 245 66 349 14 76 83 429 104 531 32 156 68
360 64 366 -2 3 -27 9 -56 13 -29 4 -69 11 -88 16 -19 5 -82 18 -140 30 -144
27 -298 58 -510 101 -58 12 -136 27 -175 35 -359 68 -501 95 -660 127 -318 64
-390 78 -465 92 -47 9 -101 20 -120 25 -19 4 -109 23 -200 40 -91 17 -221 42
-290 56 -69 13 -163 31 -210 40 -47 9 -138 27 -203 40 -155 32 -162 31 -177
-8z"/>
</g>
</svg>
